<svg xmlns="http://www.w3.org/2000/svg" width="200" height="200" viewBox="0 0 200 200">
  <rect width="200" height="200" fill="#ffffff" />
  <path d="M20 20 h40 v40 h-40 z M30 30 h20 v20 h-20 z" fill="#000000" />
  <path d="M140 20 h40 v40 h-40 z M150 30 h20 v20 h-20 z" fill="#000000" />
  <path d="M20 140 h40 v40 h-40 z M30 150 h20 v20 h-20 z" fill="#000000" />
  <rect x="80" y="20" width="40" height="40" fill="#000000" />
  <rect x="20" y="80" width="40" height="40" fill="#000000" />
  <rect x="80" y="80" width="40" height="40" fill="#000000" />
  <rect x="140" y="80" width="40" height="40" fill="#000000" />
  <rect x="80" y="140" width="40" height="40" fill="#000000" />
  <rect x="140" y="140" width="40" height="40" fill="#000000" />
  <text x="100" y="100" font-family="Arial" font-size="12" text-anchor="middle" fill="#000000">SCAN TO PAY</text>
</svg>
